<svg width="54" height="54" viewBox="0 0 54 54" fill="none" xmlns="http://www.w3.org/2000/svg">
  <rect width="54" height="54" rx="14" fill="#191C20"/>
  <path d="M27 15.333C24.218 15.311 21.519 16.285 19.391 18.077C17.263 19.87 15.846 22.364 15.396 25.11C14.945 27.856 15.491 30.672 16.934 33.051C18.377 35.43 20.623 37.215 23.267 38.083C23.85 38.2 24.083 37.85 24.083 37.5V35.516C20.817 36.216 20.117 34 20.117 34C19.533 32.6 18.833 32.25 18.833 32.25C17.783 31.55 18.95 31.55 18.95 31.55C20.117 31.666 20.7 32.716 20.7 32.716C21.75 34.466 23.383 34 24.083 33.65C24.2 32.95 24.433 32.366 24.783 32.133C22.217 31.783 19.417 30.85 19.417 26.416C19.417 25.133 19.883 24.083 20.583 23.266C20.467 22.916 20.117 21.75 20.7 20.116C20.7 20.116 21.633 19.766 23.85 21.283C25.759 20.757 27.774 20.757 29.683 21.283C31.9 19.766 32.833 20.116 32.833 20.116C33.417 21.75 33.067 22.916 32.95 23.266C33.65 24.083 34.117 25.133 34.117 26.416C34.117 30.85 31.317 31.783 28.75 32.133C29.1 32.483 29.567 33.183 29.567 34.35V37.616C29.567 37.966 29.8 38.316 30.383 38.2C33.089 37.411 35.418 35.669 36.94 33.296C38.461 30.923 39.072 28.08 38.66 25.292C38.247 22.503 36.839 19.958 34.696 18.128C32.552 16.297 29.819 15.304 27 15.333Z" fill="white"/>
</svg>
